<svg width="256" height="256" viewBox="0 0 256 256" role="img" xmlns="http://www.w3.org/2000/svg">
  <title>tailess logo</title>
  <rect x="0" y="0" width="256" height="256" rx="60" fill="#0a0a0a"/>
  <g transform="translate(34.2,105.5) scale(2.78)" fill="#ffffff">
    <path d="M27 0c-7.2 0-11.7 3.6-13.5 10.8 2.7-3.6 5.85-4.95 9.45-4.05 2.054.513 3.522 2.004 5.147 3.653C30.744 13.09 33.808 16.2 40.5 16.2c7.2 0 11.7-3.6 13.5-10.8-2.7 3.6-5.85 4.95-9.45 4.05-2.054-.513-3.522-2.004-5.147-3.653C36.756 3.11 33.692 0 27 0z"/>
  </g>
</svg>
