<svg xmlns="http://www.w3.org/2000/svg" viewBox="-1.5 -96 417.9 128" width="417.9" height="128" role="img" aria-label="tailess">
  <title>tailess</title>
  <style>@media(prefers-color-scheme:dark){.ink{fill:#F1F5F9}.acc{fill:#00BCFF}.chip{fill:#00BCFF}.edge{stroke:#00BCFF}.on-chip{fill:#0B1220}}</style>
  <g class="ink" fill="#0F172A"><g fill="#0F172A"><path d="M39.80 0L28.40 0Q20.40 0 16.65-3.65Q12.90-7.30 12.90-15.30L12.90-43.50L4.50-43.50L4.50-53.40L12.90-53.40L12.90-65.90L25.70-65.90L25.70-53.40L39.80-53.40L39.80-43.50L25.70-43.50L25.70-16.50Q25.70-12.70 27.35-11.30Q29-9.90 32.30-9.90L39.80-9.90"/><path transform="translate(41.2)" d="M22.50 1.20Q14.10 1.20 9-2.60Q3.90-6.40 3.90-13.40Q3.90-20.30 8.20-24.20Q12.50-28.10 21.30-29.80L39-33.30Q39-44.70 28.70-44.70Q24.10-44.70 21.40-42.55Q18.70-40.40 17.80-36.40L4.80-37Q6.40-45.40 12.60-50Q18.80-54.60 28.70-54.60Q40.10-54.60 45.95-48.85Q51.80-43.10 51.80-32.40L51.80-13Q51.80-10.90 52.55-10.10Q53.30-9.30 54.80-9.30L56.50-9.30L56.50 0Q54.80 0.40 51.80 0.40Q47.50 0.40 44.50-1.40Q41.50-3.20 40.70-8.10L40.70-8.20Q38.70-4 33.85-1.40Q29 1.20 22.50 1.20M25.10-8.10Q31.50-8.10 35.25-11.80Q39-15.50 39-21.60L39-24.60L25.20-21.80Q20.90-20.90 19.05-19.15Q17.20-17.40 17.20-14.60Q17.20-8.10 25.10-8.10"/><path transform="translate(97.7)" d="M19.80 0L7 0L7-53.40L19.80-53.40L19.80 0M20.10-60.50L6.80-60.50L6.80-71.90L20.10-71.90"/><path transform="translate(123.1)" d="M27.70 0L19.80 0Q13.90 0 10.45-3Q7-6 7-12.60L7-71L19.80-71L19.80-13.90Q19.80-9.90 23.80-9.90L27.70-9.90"/><path transform="translate(151.3)" d="M30.10 1.20Q22.10 1.20 16.20-2.25Q10.30-5.70 7.10-12Q3.90-18.30 3.90-26.70Q3.90-35.10 7.10-41.40Q10.30-47.70 16.15-51.15Q22-54.60 29.80-54.60Q37.40-54.60 43.10-51.20Q48.80-47.80 51.95-41.40Q55.10-35 55.10-26L55.10-23.10L17.20-23.10Q17.50-16.10 21-12.55Q24.50-9 30.20-9Q38.90-9 41.30-16.40L54.40-15.60Q52.20-7.80 45.75-3.30Q39.30 1.20 30.10 1.20M17.20-31.70L41.90-31.70Q41.40-38.20 38.15-41.35Q34.90-44.50 29.80-44.50Q24.60-44.50 21.30-41.20Q18-37.90 17.20-31.70"/></g></g><rect class="chip" x="215.8" y="-90" width="194.6" height="116" rx="26" fill="#0084D1"/><g class="on-chip" fill="#FFFFFF"><g fill="#FFFFFF"><path transform="translate(228.9)" d="M28.70 1.20Q16.50 1.20 10.50-3.90Q4.50-9 3.90-16.80L17-17.40Q17.70-13.20 20.35-10.90Q23-8.60 28.80-8.60Q33.30-8.60 35.65-10.05Q38-11.50 38-14.60Q38-16.40 37.15-17.60Q36.30-18.80 33.85-19.70Q31.40-20.60 26.70-21.50Q18.60-22.90 14-24.95Q9.40-27 7.55-30.10Q5.70-33.20 5.70-37.80Q5.70-45.20 11.45-49.90Q17.20-54.60 28.30-54.60Q36-54.60 40.95-52.15Q45.90-49.70 48.45-45.65Q51-41.60 51.40-36.60L38.40-36Q38.20-39.80 35.80-42.30Q33.40-44.80 28.10-44.80Q23.60-44.80 21.25-43Q18.90-41.20 18.90-38.20Q18.90-35 21.15-33.45Q23.40-31.90 29.40-30.90Q37.60-29.70 42.40-27.60Q47.20-25.50 49.25-22.35Q51.30-19.20 51.30-14.80Q51.30-7.10 45.15-2.95Q39 1.20 28.70 1.20"/><path transform="translate(283.2)" d="M28.70 1.20Q16.50 1.20 10.50-3.90Q4.50-9 3.90-16.80L17-17.40Q17.70-13.20 20.35-10.90Q23-8.60 28.80-8.60Q33.30-8.60 35.65-10.05Q38-11.50 38-14.60Q38-16.40 37.15-17.60Q36.30-18.80 33.85-19.70Q31.40-20.60 26.70-21.50Q18.60-22.90 14-24.95Q9.40-27 7.55-30.10Q5.70-33.20 5.70-37.80Q5.70-45.20 11.45-49.90Q17.20-54.60 28.30-54.60Q36-54.60 40.95-52.15Q45.90-49.70 48.45-45.65Q51-41.60 51.40-36.60L38.40-36Q38.20-39.80 35.80-42.30Q33.40-44.80 28.10-44.80Q23.60-44.80 21.25-43Q18.90-41.20 18.90-38.20Q18.90-35 21.15-33.45Q23.40-31.90 29.40-30.90Q37.60-29.70 42.40-27.60Q47.20-25.50 49.25-22.35Q51.30-19.20 51.30-14.80Q51.30-7.10 45.15-2.95Q39 1.20 28.70 1.20"/><path transform="translate(337.5)" d="M29.30 11L18 11Q4.30-10.10 4.30-32Q4.30-53.90 18-75L29.30-75Q17-53.40 17-32Q17-10.70 29.30 11"/><path transform="translate(367.1)" d="M12.70 11L1.30 11Q13.60-10.70 13.60-32Q13.60-53.40 1.30-75L12.70-75Q26.30-53.90 26.30-32Q26.30-10.10 12.70 11"/></g></g>
</svg>
